<?xml version="1.0" standalone="no"?>
<!DOCTYPE svg PUBLIC "-//W3C//DTD SVG 20010904//EN"
 "http://www.w3.org/TR/2001/REC-SVG-20010904/DTD/svg10.dtd">
<svg version="1.0" xmlns="http://www.w3.org/2000/svg"
 width="672.000000pt" height="672.000000pt" viewBox="0 0 672.000000 672.000000"
 preserveAspectRatio="xMidYMid meet">
<metadata>
Created by potrace 1.14, written by Peter Selinger 2001-2017
</metadata>
<g transform="translate(0.000000,672.000000) scale(0.100000,-0.100000)"
fill="#000000" stroke="none">
<path d="M4290 6575 c-158 -43 -389 -148 -585 -266 -50 -30 -104 -61 -119 -69
-57 -29 -186 -182 -186 -219 0 -6 -4 -11 -10 -11 -5 0 -10 -4 -10 -10 0 -5
-16 -42 -36 -82 -44 -90 -74 -166 -129 -333 -38 -113 -100 -325 -110 -374 -2
-9 -11 -45 -20 -81 -9 -36 -19 -74 -21 -85 -2 -11 -6 -31 -9 -45 -3 -14 -7
-34 -9 -45 -3 -11 -10 -42 -16 -70 -6 -27 -13 -59 -16 -70 -2 -11 -6 -31 -9
-45 -3 -14 -8 -43 -11 -65 -3 -22 -8 -43 -9 -46 -2 -3 -7 -28 -11 -55 -3 -27
-8 -52 -10 -55 -2 -3 -5 -19 -8 -35 -10 -57 -28 -170 -32 -199 -8 -58 -17
-111 -30 -170 -9 -44 -38 -95 -76 -135 -83 -89 -193 -142 -488 -236 -235 -74
-592 -194 -627 -210 -17 -8 -33 -14 -36 -14 -7 0 -136 -58 -162 -72 -11 -6
-51 -29 -90 -51 -74 -42 -166 -103 -202 -133 -12 -11 -37 -30 -55 -44 -98 -74
-320 -324 -395 -445 -98 -160 -166 -298 -224 -453 -37 -100 -92 -275 -103
-332 -3 -14 -7 -35 -10 -48 -4 -12 -8 -31 -11 -43 -2 -11 -6 -28 -9 -37 -3 -9
-8 -33 -11 -52 -3 -19 -8 -47 -10 -62 -7 -39 -14 -80 -19 -103 -2 -11 -7 -49
-11 -85 -4 -36 -9 -74 -11 -85 -3 -11 -7 -47 -9 -80 -3 -33 -8 -85 -10 -115
-7 -71 -11 -164 -20 -380 -4 -96 -9 -178 -11 -181 -4 -7 71 -260 85 -287 5 -9
23 -48 40 -85 146 -320 366 -417 711 -310 68 21 116 47 153 81 34 32 97 133
97 156 0 9 4 16 10 16 5 0 9 3 8 8 -1 4 6 34 16 67 55 185 79 408 100 963 2
46 6 85 9 88 3 4 2 16 -3 29 -5 13 -6 25 -3 28 3 4 7 32 9 64 7 122 15 229 19
253 2 14 7 45 10 70 6 59 13 93 32 165 8 33 16 65 18 70 1 6 7 23 13 38 7 16
12 31 12 34 0 3 9 17 20 33 11 15 17 30 13 34 -3 3 -1 6 5 6 7 0 12 5 12 11 0
6 27 51 61 100 56 81 141 176 201 222 52 41 177 95 238 102 8 1 29 5 45 8 52
11 131 22 255 33 89 8 266 5 320 -6 70 -13 137 -47 164 -83 23 -31 21 19 27
-619 2 -181 6 -328 9 -328 3 0 5 -53 6 -118 1 -136 11 -413 21 -557 3 -55 7
-119 7 -142 1 -24 3 -43 6 -43 3 0 6 -28 7 -63 2 -66 9 -147 18 -218 4 -24 8
-60 10 -79 2 -19 9 -60 15 -90 6 -30 13 -66 16 -80 8 -44 38 -104 64 -127 39
-35 157 -88 240 -109 58 -14 111 -19 230 -18 164 0 171 1 292 33 239 63 299
148 303 431 1 74 -2 142 -7 152 -4 9 -10 38 -13 65 -3 26 -8 59 -10 73 -2 14
-6 59 -10 100 -3 41 -8 95 -10 120 -2 25 -7 90 -11 145 -3 55 -7 123 -9 150
-2 28 -6 86 -9 130 -7 110 -17 260 -21 320 -2 28 -7 93 -11 145 -6 95 -8 121
-18 300 -7 126 -17 294 -22 350 -2 25 -6 72 -9 105 -2 33 -7 83 -10 111 -5 36
-3 53 7 61 11 8 226 87 268 98 14 4 638 220 670 232 8 3 20 7 25 9 6 1 37 12
70 23 95 34 418 142 435 146 8 2 27 8 43 14 15 6 27 8 27 5 0 -2 14 2 30 11
17 9 30 14 30 11 0 -2 37 7 83 21 45 13 92 26 105 29 92 19 201 82 288 168 28
28 77 73 108 101 31 27 69 68 84 90 15 22 29 42 32 45 12 12 30 51 30 64 0 8
3 16 8 18 18 8 62 175 67 256 1 24 4 45 6 47 11 11 -4 242 -21 315 -4 19 -8
58 -9 85 -1 28 -6 54 -12 60 -5 5 -9 17 -9 27 0 17 -17 52 -63 128 -12 19 -23
37 -26 40 -4 3 -24 28 -46 55 -148 188 -402 381 -868 661 -27 16 -61 37 -75
46 -15 10 -40 25 -55 33 -34 19 -264 173 -291 195 -59 47 -96 84 -96 96 0 8
-4 22 -10 32 -5 9 -28 82 -51 162 -67 241 -123 335 -230 391 -65 34 -213 36
-329 4z m278 -1550 c63 -30 156 -87 172 -106 9 -11 185 -125 275 -179 101 -61
129 -90 165 -170 28 -61 9 -182 -34 -226 -8 -8 -23 -24 -33 -37 -23 -28 -126
-108 -173 -133 -19 -11 -37 -21 -40 -25 -3 -3 -57 -31 -120 -63 -63 -33 -128
-69 -145 -82 -16 -12 -75 -46 -130 -75 -55 -28 -134 -71 -175 -93 -176 -97
-242 -120 -312 -107 -13 2 -41 51 -45 79 -6 36 -5 162 3 297 5 109 7 135 20
249 3 32 7 75 9 95 2 20 6 45 8 56 4 19 11 56 22 121 2 17 16 70 30 117 94
324 238 405 503 282z"/>
</g>
</svg>
