<svg width="116" height="42" viewBox="0 0 116 42" fill="none" xmlns="http://www.w3.org/2000/svg">
<path d="M66.3148 6.99906C66.3251 7.11092 66.305 7.28385 66.2544 7.51783C66.214 7.75181 66.1481 7.98581 66.0569 8.21984C65.9758 8.45386 65.8642 8.65741 65.722 8.83048C65.59 9.00354 65.4375 9.09017 65.2646 9.09037C65.1426 9.09052 65.0407 8.99402 64.9591 8.80087C64.8877 8.60772 64.8315 8.38403 64.7905 8.12981C64.7597 7.86541 64.734 7.60609 64.7133 7.35185C64.6927 7.0976 64.6721 6.91964 64.6517 6.81796C64.6211 6.76714 64.56 6.72145 64.4684 6.68087C64.387 6.63012 64.3056 6.60479 64.2243 6.60488C64.1429 6.60498 64.0514 6.6712 63.9499 6.80354C63.8483 6.93588 63.7468 7.08856 63.6453 7.26158C63.554 7.43459 63.4728 7.60759 63.4018 7.78057C63.341 7.95354 63.3157 8.08071 63.326 8.16206C63.3261 8.22308 63.3923 8.3298 63.5247 8.4822C63.6571 8.6346 63.8201 8.81748 64.0135 9.03084C64.2172 9.23401 64.4311 9.45751 64.6551 9.70134C64.8893 9.93498 65.1032 10.1737 65.2967 10.4176C65.4902 10.6513 65.6532 10.8749 65.7857 11.0883C65.9283 11.3017 66.0048 11.4847 66.0152 11.6372C66.0256 11.8203 65.975 12.0543 65.8634 12.3392C65.7621 12.6241 65.6302 12.8989 65.4678 13.1635C65.3054 13.4281 65.1327 13.6572 64.9499 13.8506C64.767 14.0441 64.6044 14.146 64.4621 14.1563C64.3197 14.1667 64.1111 14.0906 63.8363 13.9282C63.5717 13.7556 63.3019 13.5576 63.027 13.3342C62.7623 13.1006 62.523 12.872 62.3092 12.6485C62.1055 12.425 61.9883 12.2624 61.9577 12.1608C61.9271 12.0693 61.9066 11.9472 61.8962 11.7947C61.8961 11.6421 61.901 11.4896 61.911 11.337C61.9311 11.1844 61.9615 11.0572 62.002 10.9555C62.0426 10.8436 62.0934 10.7876 62.1544 10.7875C62.2154 10.7874 62.3376 10.8941 62.5209 11.1074C62.7042 11.3106 62.9028 11.5443 63.1167 11.8085C63.3306 12.0625 63.5394 12.2962 63.7431 12.5095C63.9467 12.7127 64.0943 12.8142 64.1859 12.8141C64.2367 12.8141 64.2926 12.7784 64.3535 12.7071C64.4145 12.6257 64.4703 12.5341 64.521 12.4323C64.5718 12.3306 64.6123 12.2288 64.6427 12.1271C64.6833 12.0151 64.7035 11.9287 64.7034 11.8676C64.6932 11.7761 64.6116 11.644 64.4589 11.4713C64.3061 11.2985 64.1126 11.1055 63.8785 10.8922C63.6443 10.6789 63.3897 10.4555 63.1149 10.2219C62.84 9.9781 62.5854 9.74956 62.3512 9.53626C62.1171 9.32295 61.9236 9.12994 61.7708 8.95722C61.6181 8.7845 61.5365 8.65238 61.5263 8.56085C61.516 8.46933 61.5463 8.3269 61.6173 8.13358C61.6882 7.93008 61.7795 7.7113 61.8911 7.47725C62.0027 7.23302 62.1295 6.98368 62.2716 6.72925C62.4239 6.4748 62.5762 6.2407 62.7285 6.02693C62.8808 5.81317 63.0281 5.64009 63.1703 5.5077C63.3227 5.36513 63.4548 5.29378 63.5667 5.29365C63.7904 5.29338 64.055 5.35409 64.3602 5.47578C64.6756 5.59745 64.9759 5.74966 65.2609 5.93239C65.5458 6.10495 65.7902 6.28773 65.9938 6.48074C66.1974 6.67374 66.3044 6.84651 66.3148 6.99906Z" fill="black"/>
<path d="M70.4297 4.36433C70.536 4.41705 70.6412 4.52087 70.7454 4.67579C70.8598 4.82989 70.966 5.01015 71.0641 5.21657C71.1615 5.41285 71.2452 5.63063 71.3153 5.86989C71.3847 6.09902 71.4279 6.32003 71.4449 6.53294C71.4562 6.67487 71.453 6.8894 71.4351 7.17651C71.4165 7.45349 71.3901 7.76169 71.356 8.10112C71.3211 8.43041 71.282 8.77024 71.2386 9.12062C71.1952 9.471 71.1544 9.79055 71.1163 10.0793C71.0781 10.368 71.0414 10.6107 71.0061 10.8074C70.9709 11.0041 70.949 11.113 70.9404 11.1341C70.9226 11.1661 70.8634 11.1912 70.7628 11.2095C70.6724 11.2269 70.5706 11.23 70.4575 11.2186C70.3544 11.2064 70.2557 11.1837 70.1612 11.1505C70.0667 11.1172 70.0069 11.071 69.9818 11.0118C69.9684 10.972 69.9532 10.8457 69.9362 10.6328C69.9285 10.4089 69.9175 10.1445 69.9033 9.83958C69.8993 9.53381 69.8932 9.20269 69.8851 8.84623C69.8872 8.48896 69.8862 8.15744 69.8821 7.85167C69.8773 7.53576 69.871 7.26588 69.8633 7.04202C69.8657 6.81736 69.8653 6.68475 69.8621 6.6442C69.8593 6.48117 69.8315 6.32525 69.7788 6.17642C69.7354 6.01664 69.6788 5.88342 69.6091 5.77676C69.5495 5.66929 69.4817 5.58798 69.4059 5.53283C69.3402 5.47686 69.2778 5.46145 69.2186 5.48659C69.1289 5.51416 69.0397 5.5468 68.9509 5.58451C68.8722 5.62141 68.8033 5.65243 68.7441 5.67758C68.6654 5.71448 68.5969 5.75057 68.5385 5.78584C68.5883 6.53689 68.6319 7.27313 68.6692 7.99457C68.7065 8.71601 68.733 9.36689 68.7488 9.9472C68.7638 10.5174 68.7652 10.9815 68.753 11.3396C68.7501 11.6867 68.7289 11.867 68.6891 11.8804C68.6088 11.897 68.5147 11.8688 68.4069 11.7958C68.3091 11.722 68.2098 11.6279 68.1088 11.5135C68.0086 11.4093 67.9178 11.2941 67.8363 11.168C67.7649 11.0411 67.7155 10.9328 67.6879 10.8432C67.5273 9.85612 67.3905 8.97429 67.2774 8.19769C67.1635 7.41096 67.067 6.71466 66.9879 6.10879C66.9089 5.50293 66.8414 4.97776 66.7854 4.5333C66.7396 4.08803 66.7041 3.70824 66.679 3.39396C66.6097 2.65467 66.5789 2.14188 66.5866 1.85557C66.6101 1.63943 66.6852 1.42937 66.8117 1.22539C66.9374 1.01127 67.0753 0.821693 67.2254 0.656648C67.3855 0.490792 67.5338 0.366705 67.67 0.284387C67.8156 0.191121 67.9154 0.162737 67.9693 0.199237C68.0022 0.22722 68.0389 0.367129 68.0794 0.618965C68.1293 0.859852 68.1759 1.18772 68.2193 1.60258C68.2618 2.0073 68.3046 2.47833 68.3476 3.01566C68.3897 3.54285 68.4292 4.10086 68.4661 4.68969C68.8587 4.49505 69.2257 4.36367 69.5672 4.29556C69.9188 4.22663 70.2063 4.24955 70.4297 4.36433Z" fill="black"/>
<path d="M75.3223 6.00346C75.4028 6.05169 75.4875 6.15593 75.5766 6.31616C75.6758 6.47469 75.7709 6.67002 75.8619 6.90215C75.9529 7.13428 76.0424 7.38731 76.1302 7.66125C76.218 7.93519 76.2999 8.20496 76.376 8.47058C76.4521 8.73619 76.5156 8.98847 76.5665 9.22742C76.6258 9.45463 76.6732 9.64258 76.7088 9.79128C76.7495 9.97006 76.7868 10.1597 76.8209 10.3603C76.8633 10.5491 76.8948 10.7346 76.9155 10.9168C76.9444 11.0872 76.9608 11.2443 76.9646 11.3881C76.9785 11.5302 76.9763 11.6389 76.9581 11.7142C76.9235 11.8748 76.8361 11.998 76.696 12.0837C76.5641 12.1577 76.4096 12.2201 76.2326 12.2708C76.144 12.2961 75.9895 12.3276 75.7689 12.365C75.5566 12.3908 75.3243 12.42 75.0719 12.4525C74.8278 12.4734 74.5938 12.4925 74.3698 12.5099C74.1458 12.5274 73.977 12.5354 73.8633 12.5341C73.6341 12.5214 73.4626 12.4835 73.3487 12.4204C73.2449 12.3555 73.135 12.2555 73.0192 12.1204C72.9789 12.0654 72.9283 11.9192 72.8674 11.682C72.8047 11.4347 72.7394 11.1415 72.6714 10.8023C72.6118 10.4513 72.5529 10.0745 72.4948 9.6717C72.4367 9.26892 72.387 8.88534 72.3457 8.52096C72.3144 8.15488 72.2909 7.83392 72.2749 7.55808C72.269 7.28054 72.2885 7.09154 72.3333 6.99107C72.4097 6.83366 72.5581 6.67434 72.7783 6.51313C73.0085 6.35021 73.2179 6.21662 73.4065 6.11236C73.5017 6.06524 73.6286 6.02303 73.7873 5.98575C73.9544 5.93673 74.1299 5.90691 74.3138 5.8963C74.506 5.87395 74.6916 5.87336 74.8705 5.89453C75.0478 5.90568 75.1984 5.94198 75.3223 6.00346ZM75.2723 10.8091C75.2856 10.7656 75.2852 10.6418 75.2712 10.4379C75.2655 10.2222 75.2429 9.96815 75.2036 9.67566C75.1742 9.38147 75.1314 9.06894 75.0752 8.73805C75.029 8.40545 74.982 8.09878 74.9343 7.81803C74.8866 7.53727 74.8365 7.30334 74.7841 7.11624C74.73 6.91911 74.6853 6.80806 74.6501 6.78309C74.5932 6.7515 74.5154 6.74924 74.4169 6.7763C74.3266 6.79164 74.2339 6.82287 74.1388 6.86998C74.0419 6.90708 73.9568 6.95249 73.8834 7.00623C73.8083 7.04994 73.7582 7.08939 73.7333 7.12458C73.6217 7.25703 73.5821 7.44944 73.6147 7.70182C73.6266 7.77201 73.6507 7.97425 73.6869 8.30855C73.7313 8.63111 73.786 8.9829 73.8507 9.36393C73.9137 9.73492 73.9775 10.08 74.0421 10.3992C74.1167 10.7166 74.185 10.9062 74.247 10.9678C74.3091 11.0295 74.3887 11.0727 74.4857 11.0975C74.5911 11.1106 74.6939 11.1086 74.7942 11.0915C74.9045 11.0728 75.0022 11.0407 75.0873 10.9953C75.1808 10.9381 75.2425 10.8761 75.2723 10.8091Z" fill="black"/>
<path d="M80.6535 4.1071C80.764 4.15022 80.878 4.24433 80.9955 4.38943C81.1213 4.52279 81.2423 4.68794 81.3582 4.88488C81.4725 5.07179 81.5752 5.2813 81.6662 5.51343C81.7555 5.73553 81.8181 5.95186 81.8539 6.16243C81.8914 6.38302 81.9032 6.69566 81.8895 7.10034C81.884 7.49329 81.8644 7.89381 81.8306 8.30189C81.7967 8.70998 81.7611 9.07711 81.7237 9.40328C81.6863 9.72945 81.6576 9.92517 81.6378 9.99044C81.6168 10.2313 81.5647 10.4104 81.4815 10.5277C81.3948 10.6249 81.2697 10.7081 81.106 10.7772C80.9507 10.8345 80.7887 10.8827 80.6199 10.9217C80.4512 10.9606 80.2857 10.9888 80.1236 11.006C79.9598 11.0132 79.8302 11.0094 79.7348 10.9947C79.7248 10.9964 79.688 10.9923 79.6244 10.9825C79.6926 11.3836 79.7574 11.7955 79.8189 12.2184C79.8702 12.581 79.9292 12.9888 79.9959 13.4417C80.0608 13.8846 80.1266 14.3325 80.1932 14.7854C80.1885 14.8791 80.1663 14.9912 80.1266 15.1217C80.0969 15.2506 80.0505 15.372 79.9873 15.4859C79.9258 15.6098 79.8559 15.7145 79.7776 15.8C79.7093 15.8838 79.6384 15.9217 79.5648 15.9136C79.523 15.9104 79.448 15.7426 79.34 15.4102C79.2436 15.0861 79.1235 14.6526 78.9797 14.1096C78.8476 13.575 78.6968 12.961 78.5274 12.2676C78.358 11.5742 78.1911 10.865 78.0266 10.1398C77.8621 9.41467 77.7052 8.70371 77.5558 8.00694C77.4148 7.29843 77.2874 6.67015 77.1737 6.12207C77.0682 5.56227 76.9907 5.10604 76.9411 4.7534C76.8898 4.39072 76.8816 4.19094 76.9166 4.15404C76.9416 4.11885 77.0026 4.11364 77.0997 4.13842C77.195 4.15316 77.3055 4.19629 77.4311 4.26779C77.5651 4.32756 77.7033 4.41239 77.8458 4.5223C77.9966 4.62047 78.1349 4.73624 78.2607 4.86961C78.7145 4.56553 79.1544 4.33088 79.5802 4.16567C80.0061 4.00046 80.3639 3.98094 80.6535 4.1071ZM80.3975 6.42537C80.3702 6.26494 80.3188 6.11378 80.2431 5.9719C80.1757 5.81828 80.0976 5.69229 80.0086 5.59392C79.918 5.48553 79.8275 5.40806 79.737 5.36153C79.6549 5.30327 79.5855 5.28928 79.5287 5.31955C79.2883 5.42231 79.0896 5.52828 78.9328 5.63746C78.8494 5.6929 78.7818 5.7508 78.7302 5.81116C78.8048 6.12861 78.8898 6.56809 78.9852 7.1296C79.0889 7.67938 79.197 8.28515 79.3095 8.94693C79.3589 9.23771 79.4021 9.43153 79.4392 9.52839C79.4901 9.76734 79.5784 9.92256 79.704 9.99406C79.7392 10.019 79.7903 10.0465 79.8573 10.0763C79.9226 10.0962 79.9929 10.1152 80.0682 10.1334C80.1417 10.1415 80.2145 10.1446 80.2864 10.1427C80.3566 10.1308 80.4133 10.1005 80.4566 10.0519C80.465 10.0401 80.4697 9.94649 80.4708 9.77092C80.4802 9.58362 80.4837 9.36122 80.4812 9.10374C80.477 8.83622 80.4703 8.55367 80.461 8.25607C80.46 7.94674 80.4533 7.66419 80.4408 7.4084C80.4366 7.14089 80.4292 6.91518 80.4185 6.73129C80.4079 6.5474 80.4009 6.44543 80.3975 6.42537Z" fill="black"/>
<path d="M66.4999 16.9999C67.306 14.5811 69.9999 13.8333 71.4999 14.4999C71.8999 14.9 72.6666 15.9999 73 16.4998L76.5 24.9998C77.1667 27.1665 78.8674 31.3675 79.5 31.9998C80.0002 32.4998 80.0002 31.5 80.5002 30.5L86.5002 13C87 11.9999 86.7 11.1999 89.5 11.9999C93.1 12.7999 100 13.4998 101 13.4998C103 12.9998 109 11.9998 109.5 13.4998C109.9 15.8998 107 16.9998 105.5 16.9998C105.5 16.9998 97.5811 16.4998 96 16.4998C95 16.4998 94.1667 17.3332 94.5 18.4998C94.5 18.4998 95.0002 19.5 95.5002 22C95.9002 24 96.4992 24.4998 97.4992 24.4998C98.4992 24.4998 102.663 24.4998 104.499 24.4998C105.999 24.4998 111.5 25.4998 112 25.9998C112.283 26.2827 111.167 26.3332 110.5 26.4998C107.5 26.8332 100.116 27.2948 99.5002 27.5C98.4396 27.8534 98.1667 28.4998 98.5 28.9998C98.8333 29.4998 100 32 100 32.5C100.5 34 103.029 32.7355 103.5 32.4998C105.5 31.5 109.5 30 110.5 29.5C111.5 29 115 28 115.5 28.4998C115.854 28.8534 115 29.9998 114 30.4998C110 33 107.5 34.4998 105 36.4998C99 41.4998 97.5 41.4998 96 41.4998C94.5 41.4998 94.0995 40.9949 94 39.9998C93.5002 35 91 28.9998 90.5 27.9998C90.1 27.1998 89.0002 27.3334 88.5002 27.5C88.0002 28 87.5002 28.5 87 29.9998C86.1142 32.656 84.3333 36.4998 83 37.9998C81.2222 39.9998 76.0113 42.6448 74.5 39.9998C72.5002 36.5 71.0002 33 68.5002 27C67.8336 25.6667 65.5002 20 66.4999 16.9999Z" fill="black"/>
<path fill-rule="evenodd" clip-rule="evenodd" d="M12.9997 15.4997C11.833 13.6664 8.5 9.99984 2.49975 15.4997C-0.500253 17.4998 -0.000805 37.9998 5.99975 41.4998C7.5 42.4998 10 41.4998 11 40.4998C12 39.4998 11.5 39.1179 11.5 37.9998C11.5 37.4998 10.1667 34.6664 9.5 33.4998C12.6667 32.1664 19.21 29.1446 20.5 28.4998C21.5 27.9998 22 27.9998 22.5 26.9998C22.5 30.9998 24.1 37.6998 28.5 40.4998C30.9 42.4998 34.5 39.9998 36 38.4998C38.1667 36.4998 42.9 32.4998 44.5 32.4998C45.5 32.4998 46.5 31.4998 46.5 30.9998C46.5 30.4998 46.5 27.4998 34.5 33.4998C33.5 33.9998 33 33.9998 32 31.4998C31.5 30.4998 30.5 28.4998 30 25.9998C29.5 23.4998 30 21.9998 32 18.9998C34 15.9998 33 13.9998 32 13.9998C31 13.4998 27 11.9998 24 18.4998C23.6 19.2998 23.1667 20.8331 23 21.4998C23 20.8331 21.9 19.0998 17.5 17.4998C13.1 15.8997 12.6665 15.4997 12.9997 15.4997ZM7 27.9998C7 17.7862 10.5 19.9998 12.9997 21.4998C13.3332 21.6664 14.3 22.0998 15.5 22.4998C17.5 23.9998 15.2625 25.3024 12.9997 26.9998C11 28.4998 7 29.9998 7 27.9998Z" fill="black"/>
<path fill-rule="evenodd" clip-rule="evenodd" d="M57.4997 11.4997C56.4997 11.1664 53.8996 12.2998 51.4997 19.4997C48.4999 28.4996 44.9999 34.9997 44.4997 35.9996C43.4992 37.9998 45.4992 38.9998 45.9992 38.9998C46.4992 38.9998 46.9992 39.4998 50.9992 36.9998C52.9992 35.9998 58.9992 36.4998 60.9992 37.4998C61.9982 39.5001 63.8867 41.8061 65.4992 40.9998C65.8295 40.8347 66.4992 40.9998 67.4992 39.9998C68.07 39.3129 67.791 38.2445 67.5002 36.4996C67.0002 33.4996 60.0002 14.4996 59.5002 13.4996C59.0002 12.4996 58.9993 11.9999 57.4997 11.4997ZM54.0002 32.9996C54.0002 29.7996 55.6669 26.6663 56.5002 25.4996C57.4992 25.4998 58.9992 29.9998 59.4992 31.4998C59.8992 32.6998 59.5002 32.9996 59.0002 32.9996C57.6669 33.3329 54.9992 33.9998 54.0002 32.9996Z" fill="black"/>
</svg>

